PathFileType	4	(X/Y/Z)	Kaydara	
DataRate	CameraRate	NumFrames	NumMarkers	Units	OrigDataRate	OrigDataStartFrame	OrigNumFrames	
120.00	120.00	4	72	mm	120.00	131	261	
Frame#	Time	Hips			RightUpLeg			RightLeg			RightFoot			RightFoot_End			LeftUpLeg			LeftLeg			LeftFoot			LeftFoot_End			Spine			Spine1			Spine2			Spine3			Neck			Head			Head_End			RightShoulder			RightArm			RightForeArm			RightHand			RightHandThumb1			RightHandThumb2			RightHandThumb3			RightHandThumb3_End			RightInHandIndex			RightHandIndex1			RightHandIndex2			RightHandIndex3			RightHandIndex3_End			RightInHandMiddle			RightHandMiddle1			RightHandMiddle2			RightHandMiddle3			RightHandMiddle3_End			RightInHandRing			RightHandRing1			RightHandRing2			RightHandRing3			RightHandRing3_End			RightInHandPinky			RightHandPinky1			RightHandPinky2			RightHandPinky3			RightHandPinky3_End			LeftShoulder			LeftArm			LeftForeArm			LeftHand			LeftHandThumb1			LeftHandThumb2			LeftHandThumb3			LeftHandThumb3_End			LeftInHandIndex			LeftHandIndex1			LeftHandIndex2			LeftHandIndex3			LeftHandIndex3_End			LeftInHandMiddle			LeftHandMiddle1			LeftHandMiddle2			LeftHandMiddle3			LeftHandMiddle3_End			LeftInHandRing			LeftHandRing1			LeftHandRing2			LeftHandRing3			LeftHandRing3_End			LeftInHandPinky			LeftHandPinky1			LeftHandPinky2			LeftHandPinky3			LeftHandPinky3_End			
		X1	Y1	Z1	X2	Y2	Z2	X3	Y3	Z3	X4	Y4	Z4	X5	Y5	Z5	X6	Y6	Z6	X7	Y7	Z7	X8	Y8	Z8	X9	Y9	Z9	X10	Y10	Z10	X11	Y11	Z11	X12	Y12	Z12	X13	Y13	Z13	X14	Y14	Z14	X15	Y15	Z15	X16	Y16	Z16	X17	Y17	Z17	X18	Y18	Z18	X19	Y19	Z19	X20	Y20	Z20	X21	Y21	Z21	X22	Y22	Z22	X23	Y23	Z23	X24	Y24	Z24	X25	Y25	Z25	X26	Y26	Z26	X27	Y27	Z27	X28	Y28	Z28	X29	Y29	Z29	X30	Y30	Z30	X31	Y31	Z31	X32	Y32	Z32	X33	Y33	Z33	X34	Y34	Z34	X35	Y35	Z35	X36	Y36	Z36	X37	Y37	Z37	X38	Y38	Z38	X39	Y39	Z39	X40	Y40	Z40	X41	Y41	Z41	X42	Y42	Z42	X43	Y43	Z43	X44	Y44	Z44	X45	Y45	Z45	X46	Y46	Z46	X47	Y47	Z47	X48	Y48	Z48	X49	Y49	Z49	X50	Y50	Z50	X51	Y51	Z51	X52	Y52	Z52	X53	Y53	Z53	X54	Y54	Z54	X55	Y55	Z55	X56	Y56	Z56	X57	Y57	Z57	X58	Y58	Z58	X59	Y59	Z59	X60	Y60	Z60	X61	Y61	Z61	X62	Y62	Z62	X63	Y63	Z63	X64	Y64	Z64	X65	Y65	Z65	X66	Y66	Z66	X67	Y67	Z67	X68	Y68	Z68	X69	Y69	Z69	X70	Y70	Z70	X71	Y71	Z71	X72	Y72	Z72	

131	1.083	3081.203	893.81699	129.612	3159.545149443148	894.8546957262822	92.81072833456962	3047.9387085551	493.9698481270893	47.22102175914234	3055.727219024212	113.48895363581896	17.537043086491746	2949.0725022353236	39.665200350566614	157.43310071971936	3014.4254734230153	866.5782674331236	180.6236409728452	2907.3596531634107	479.0790826461694	297.19213242957034	2788.7296030319026	86.18452197748275	457.6888090710253	2644.355930844751	39.50021487965286	342.45450339252125	3027.2124933805776	1014.5280567807158	75.71651672397313	2972.497003759011	1077.4295424805503	26.08331442884413	2911.7288098021254	1137.2103503419867	-28.26600033325941	2848.9264174232867	1185.2878015544193	-84.66589008647989	2780.0527551998766	1237.7601758867597	-141.94127130357612	2707.570598293844	1278.6827634792512	-185.59372204286984	2568.396811903007	1355.6181925741078	-197.61505899765297	2823.5770090175897	1233.2620683256491	-136.09378656381622	2901.773588355276	1280.4483716486395	-192.8610803907959	3021.1740437288227	1096.6655158604747	-275.80003960100805	3193.2786995146344	1032.2436876992035	-379.4168236117841	3205.3600059389373	1054.2871644905358	-397.02344413759056	3207.969968873287	1060.1806211728758	-425.3834954701564	3211.0454011888482	1060.4981663757194	-444.9876507109649	3214.685306258433	1057.5235053531294	-461.2060675001051	3212.6209756554663	1043.4336938682502	-397.28317266291134	3239.7287926086046	1043.466057746088	-427.6558101477173	3249.8143920520038	1039.759016568232	-453.24190071707517	3248.1378219520934	1038.4892422002956	-469.353174432373	3241.3897740805137	1038.136314613839	-482.82635251615955	3214.6813413978202	1032.9561997166302	-396.0410087502257	3242.23844411537	1027.321550995457	-424.99241119015085	3253.4168072491507	1021.889185018948	-452.6550636055946	3251.477064077187	1019.6915520016803	-471.96946376254874	3244.1338122093644	1018.9817687290187	-486.65163814952234	3215.5479932544777	1025.5661479329447	-394.3482709206849	3241.2976177089417	1014.139671536727	-418.7077837981745	3251.1729451294564	1007.9956283736067	-442.5109355488017	3249.3721120597147	1005.127489616662	-460.97778796911757	3242.5008599925377	1004.1054868791726	-474.7052910012674	3214.9520438995896	1016.9443946576303	-391.8331943760465	3238.5555947152675	1001.1928664531672	-412.50034239052985	3246.5566248407713	994.1242119872384	-430.97500881724795	3245.2881865988775	990.9927655511308	-444.1613323466268	3239.227330978047	989.4892432261948	-456.15852750238025	2782.2270671246692	1205.994184599928	-110.25858516842194	2721.3649451702136	1120.7767813095477	-75.59929754154095	2916.783051098699	1055.866523718491	-179.50915764174886	3114.3185375374633	1027.8397164184444	-278.3305444136507	3129.057220522749	1052.694632773115	-287.04452889147376	3156.1809824035204	1062.021116292621	-278.4286657088795	3176.887318838847	1064.82861923715	-272.256963075621	3195.703983617793	1064.0145846207924	-266.9650737472621	3136.576601732652	1042.4779796004684	-289.1029448018238	3178.839811886606	1048.0474260808362	-296.8124569659255	3210.1073861442783	1048.0693077730853	-292.16684752653924	3225.8056120130013	1048.5390862539616	-283.3253637154836	3236.2757388837827	1049.2356285673504	-271.9915743916453	3140.1367256849367	1032.071649744503	-287.8920281050608	3183.2841358390447	1031.876236153243	-294.75952258537455	3217.738258343844	1030.504137822676	-289.49294869078915	3236.8383261913586	1030.4010259924378	-278.7313365511018	3248.372676292276	1030.8375144749646	-266.284078188485	3141.574903213806	1024.5935908963131	-286.94184061625384	3181.4962486363415	1017.9741719326971	-292.5702558066699	3211.800958876487	1015.3515539881371	-287.76629380358213	3230.370187215218	1014.4944372028144	-277.272410717165	3241.284424042194	1014.5458118949828	-265.5150888544574	3141.9967351942373	1015.6862583060279	-284.8193503249716	3178.890888714727	1004.1795724860948	-289.0181477673243	3203.411723246536	999.8824155498893	-284.81276887570425	3217.0790393910493	998.1944419416606	-276.9850472949209	3226.8179734129353	997.6282993443217	-266.47015515683086
132	1.092	3081.203	893.81699	129.612	3158.9815246830613	894.5390781791533	92.6698304440433	3047.5789934524378	493.6060510699275	47.26550734889326	3056.391860459646	113.56995625509714	16.6668899156561	2950.0849598593827	39.53498306757709	156.57925398738527	3014.975944296507	866.8864633754755	180.7647914426124	2907.885728932725	479.3885346297709	297.291287336955	2789.2989202037134	86.32494833758616	457.16014691617465	2644.9681774583614	39.52405824390143	341.9483128297547	3027.338345780666	1014.5615093432363	75.67051457044907	2972.680425055065	1077.5228587914823	26.046263938568107	2911.968902288424	1137.3796992586338	-28.284902678755447	2849.2112388150817	1185.5510670629458	-84.65343298647682	2780.389194232487	1238.1173695342065	-141.90414523767043	2707.9867042315873	1279.1535620479517	-185.5574220392657	2568.813587892014	1356.085057418742	-197.5510182159516	2823.7444039708857	1233.411931573751	-136.03959755147324	2901.371281624896	1280.0269894448688	-192.47021300857782	3020.4972113868157	1096.8980302291393	-274.15932493243594	3191.218050359895	1032.592474019259	-376.9755980550319	3203.2997813644033	1054.6721261367773	-394.44468506556365	3205.9472388048625	1060.6122665503854	-422.64915070183764	3209.0334950747574	1060.9600065970612	-442.1446750319146	3212.6693456230532	1058.0085354654927	-458.2722916725577	3210.496704511916	1043.8124199474619	-394.6900256048424	3237.490795519752	1043.8873551945926	-424.8327454405472	3247.5468430916803	1040.216608439709	-450.26291254695275	3245.9003963071636	1038.9716437756338	-466.2975560682544	3239.2099956028287	1038.6407656835943	-479.72100383375914	3212.5218061342525	1033.3274603174218	-393.45529422789525	3239.94889544812	1027.730292657333	-422.1864612066925	3251.0907903040193	1022.3364181835888	-449.6807020127824	3249.1853645445826	1020.1681826845905	-468.9034814028115	3241.9042023624247	1019.4822633149311	-483.53164779448923	3213.365820276525	1025.9309724803766	-391.7735861283739	3238.97744494962	1014.5322837503459	-415.9450372944771	3248.816880211781	1008.4205908217479	-439.60351896541835	3247.0469700633926	1005.5801710191547	-457.98312000971487	3240.233066199744	1004.5803077245073	-471.66037520431126	3212.7520064967334	1017.301154314316	-389.27858307894314	3236.215833011247	1001.5699037641461	-409.78524443669187	3244.1823272687434	994.525165937462	-428.1481893369917	3242.9336406143866	991.4129756255718	-441.27286861919947	3236.9219728207454	989.928511090052	-453.22669953205326	2782.6962027287095	1206.5037361392347	-110.24584833059387	2722.268430837302	1122.0793855389436	-75.67861173146336	2916.6103147888334	1056.7911810503394	-178.42879201067493	3112.8474875849365	1028.519824889056	-276.286929121294	3127.5069016166776	1053.3501934138917	-284.9440685938466	3154.465115636229	1062.613404376176	-276.3450836617425	3175.0443777959654	1065.375966347211	-270.1807067908053	3193.7450233476125	1064.5237157366425	-264.89113459786176	3134.979919337551	1043.1313463651325	-286.9712067762555	3176.993708277157	1048.6427806532236	-294.57373594742535	3208.0708166545505	1048.6071671908608	-289.90809232102794	3223.6703124666647	1049.037017978663	-281.09592950532493	3234.0719986667577	1049.697691576031	-269.81459067984207	3138.5158624642036	1032.7238342871758	-285.7545538384691	3181.406921029648	1032.471200323874	-292.5145834896463	3215.6508033137325	1031.0363760902853	-287.225806378139	3234.630605409349	1030.8850979984588	-276.4994054869141	3246.0895082715942	1031.2823403974833	-264.1094569088774	3139.9433660637487	1025.2465754372477	-284.802442187587	3179.625833769494	1018.5770301223412	-290.3311132223219	3209.7452468559563	1015.8998379349041	-285.5076241055649	3228.197380415359	1014.9963145064731	-275.04761427790066	3239.0401584002766	1015.0108134486089	-263.34413439785504	3140.3597686924995	1016.3406134428251	-282.68558180277284	3177.0315478096445	1004.7893034942746	-286.79430689860123	3201.4018428913173	1000.4488178716895	-282.57346084307324	3214.9827030496967	998.7271757105184	-274.77052817744	3224.6577377494445	998.1284712965072	-264.3033788720506
133	1.1	3081.203	893.81699	129.612	3158.404848134681	894.2067470130756	92.5240608541834	3047.2033572713635	493.22395430699663	47.333742643614194	3057.0485803625475	113.6407833223212	15.798537756800679	2951.09175074703	39.38603318853541	155.7213838573037	3015.5368928610646	867.2103586572185	180.91084412208195	2908.459963965748	479.6959953936439	297.37034437051614	2789.9009473333554	86.4422472505502	456.55647244004075	2645.5841766864937	39.50342651809605	341.40613372312174	3027.477725914423	1014.6001629797455	75.6232787801306	2972.878825374462	1077.6236070677458	26.00953388185521	2912.224225542865	1137.5584350785844	-28.301234077407326	2849.509689546461	1185.8249067050097	-84.63512902742842	2780.7377525839697	1238.4862708730514	-141.8579098467715	2708.4148792795067	1279.6377138058224	-185.51011685232496	2569.2418087256565	1356.565225074435	-197.4675509814519	2823.9210731450576	1233.5702395195822	-135.97694811737225	2900.9683913541116	1279.6050495782672	-192.06973191703005	3019.7837680030034	1097.130730678732	-272.47516211226014	3189.0858511399624	1032.9500783446435	-374.4185587306214	3201.164920355187	1055.0667400107282	-391.74385935352205	3203.854965185943	1061.0523967722688	-419.78605954310535	3206.9562163396286	1061.4298066077995	-439.167878097981	3210.5920245390084	1058.5013334215967	-455.20010162042905	3208.2990844078404	1044.2022299505238	-391.9724996528192	3235.1819211375227	1044.3228648114966	-421.8716052666392	3245.213717347471	1040.6888594780464	-447.13750581298086	3243.6019537320685	1039.4675559676566	-463.09239184722077	3236.9738271913648	1039.1568146731795	-476.4649098733122	3210.290705826719	1033.7103961935914	-390.7445836874345	3237.591156842997	1028.1540812858143	-419.24182175318373	3248.7025989073654	1022.7992514368411	-446.55851116236335	3246.837103284455	1020.6590594235884	-465.6858790968425	3239.6231473178864	1019.9949263905817	-480.25871662590697	3211.1132479916223	1026.3078302650479	-389.0738006548911	3236.5908162163005	1014.9403198063239	-413.0447768068411	3246.3998350609404	1008.8615213747295	-436.5506071597171	3244.666384463119	1006.0475472287311	-454.83929318257077	3237.9146979514167	1005.0678857097789	-468.46505478103677	3210.4830916640335	1017.6701112381677	-386.5992859406649	3233.8116437493068	1001.9624179602725	-406.93426729539004	3241.7483311847664	994.9421132858598	-425.17913162706844	3240.523602079263	991.8482894033073	-438.2395096146714	3234.5655311925307	990.3811884704253	-450.14888128376333	2783.1813086796565	1207.0276457850212	-110.22535330228358	2723.2018256132906	1123.4112248200754	-75.74079112277822	2916.453951816317	1057.7462660798558	-177.30594461644165	3111.3457954854844	1029.17019325618	-274.16937315537155	3125.9291480774837	1053.9661622507188	-282.77892222450174	3152.7194745337015	1063.1610600780568	-274.2023820718048	3173.1689692360246	1065.8748553047096	-268.0474870843701	3191.750440229263	1064.9809294879128	-262.76055722287913	3133.352529289926	1043.7422989927509	-284.7693936938471	3175.111789655863	1049.1785891568775	-292.2647724571317	3205.993566530759	1049.0777591939413	-287.5793562984532	3221.491851892195	1049.4667751004963	-278.7982990555631	3231.8234107297203	1050.0934547413797	-267.57198224639063	3136.8615142879066	1033.333542635364	-283.54234868943706	3179.4897368724023	1033.0069431060267	-290.1922315159577	3213.517719470854	1031.501020060242	-284.88092390919724	3232.374093746898	1031.3005065763023	-274.1915927039979	3243.7556220955075	1031.6605664670865	-261.86162488689473	3138.2765172670674	1025.8574289220367	-282.58501265204876	3177.7127260562047	1019.1229088845053	-288.00862717433193	3207.6415598417384	1016.3839251235015	-283.1647024468011	3225.973363598389	1015.4330065830272	-272.7400285756259	3236.7427825498175	1015.412590023847	-261.0927451889775	3138.685491375218	1016.954110458216	-280.4701023919643	3175.1269097771174	1005.3451753173904	-284.4815630523425	3199.341923238176	1000.9557729800322	-280.2435751598822	3212.8337194369706	999.1998333302685	-272.46603983045287	3222.4430288125304	998.5703572425509	-262.04845492694346
134	1.108	3081.203	893.81699	129.612	3157.8165689787047	893.8541097461731	92.37785861242047	3046.796222546693	492.81997241031854	47.46867294591214	3057.6734949890047	113.69811495383648	14.984242935505396	2952.071013773867	39.20834516558444	154.90969185738768	3016.1051849108044	867.5533816680809	181.05832280822213	2909.078692958623	480.0045778092454	297.4243582930238	2790.528981784402	86.53574048096006	455.8633889406649	2646.1980782637465	39.424112756385966	340.8175755200532	3027.6377647707964	1014.6450656472778	75.57021485931601	2973.101737273385	1077.7337306763907	25.967145503242694	2912.506063311819	1137.7492999119781	-28.321946693379186	2849.8336267839704	1186.1125938385123	-84.6180644473471	2781.1110794331926	1238.8707533637482	-141.80999076775342	2708.8681729695127	1280.1398335761708	-185.4591609998478	2569.694241683808	1357.0626908585998	-197.3722954706655	2824.1196189519433	1233.7409299809551	-135.91256702205308	2900.578308856604	1279.187818594083	-191.66727454795347	3019.0523033823365	1097.379489392314	-270.76443174622216	3186.9189999795017	1033.3699970122036	-371.7501705914323	3198.9910100759284	1055.5269128546456	-388.92475348502074	3201.729362492063	1061.5582032916861	-416.79806050006647	3204.8504815826263	1061.9656207248083	-436.0612442559318	3208.491071566809	1059.0606458505079	-451.9936965299924	3206.06440517934	1044.6592871064393	-389.1346632016801	3232.8390648439004	1044.8320669319946	-418.7764656305578	3242.8530118645635	1041.236767397266	-443.8700181537725	3241.281287255832	1040.038253541456	-459.7422329208871	3234.7207951388446	1039.7455161822377	-473.062833377441	3208.025062588443	1034.1609315055762	-387.91325504793764	3235.2032368931978	1028.65194795278	-416.1630454353398	3246.2915390780117	1023.3383277775193	-443.2933702329806	3244.472592290637	1021.2251384373388	-462.32181354678255	3237.3317842577176	1020.5804639393367	-476.8382418538597	3208.8277951618866	1026.7524006578017	-386.25350892535414	3234.176550476631	1015.4220554318513	-410.0119358931907	3243.961856384459	1009.3780517981816	-433.35746011256333	3242.271423338545	1006.5895264983695	-451.55185755343746	3235.5876231041584	1005.627880493141	-465.12511626532495	3208.183413096166	1018.1064996809547	-383.80016171065836	3231.38268330169	1002.4277800606914	-403.95273750798236	3239.295420191759	995.4334225787288	-422.07348734422743	3238.099669360122	992.3572343984324	-435.06714873775894	3232.2003531364157	990.9055583346068	-446.93119388931217	2783.694572788417	1207.5693288376563	-110.20501841250694	2724.1771401841497	1124.7761471080996	-75.77570847434829	2916.3219564947362	1058.7005090437694	-176.14137580516814	3109.819296571816	1029.7448839326687	-271.99493312390985	3124.3262980796308	1054.5002541471044	-280.5613406437411	3150.9418455458976	1063.6248963890791	-272.00781356544195	3171.2562043762878	1066.2884043763227	-265.8611342265731	3189.713538335881	1065.3513922364166	-260.5743693840501	3131.6984443393103	1044.269594245697	-282.5094783411546	3173.196156738631	1049.6205654210703	-289.8901912640116	3203.8752208627116	1049.4506956351004	-285.1804015754799	3219.2673461848385	1049.7992144491777	-276.42987206777195	3229.524436085406	1050.3940104183198	-265.2596383448023	3135.179049733372	1033.8596462746175	-281.2678127233236	3177.536820747163	1033.4491850068036	-287.79793046576907	3211.340682898301	1031.868034539453	-282.4585393324327	3230.0675759458427	1031.6187145116473	-271.80532473938246	3241.3669406042877	1031.9439116032306	-259.53637491823173	3136.5807470627205	1026.3849389662064	-280.3024376315171	3175.7632325400796	1019.5766953288304	-285.6098775976156	3205.494161375332	1016.7723827497225	-280.7401479628441	3223.699711629333	1015.7745149192921	-270.3496097463883	3234.3912289701852	1015.7213788488489	-258.75936493355584	3136.981408902024	1017.4851442175866	-278.18659871086913	3173.1851409345118	1005.8109775703825	-282.0887577892049	3197.238789780146	1001.3699599361171	-277.82855184844453	3210.6370965885985	999.5801120914439	-270.0751625189607	3220.1765952017417	998.921847181801	-259.7076712198321
